<mxfile host="app.diagrams.net" modified="2023-12-28T13:22:50.417Z" agent="Mozilla/5.0 (Windows NT 10.0; Win64; x64) AppleWebKit/537.36 (KHTML, like Gecko) Chrome/120.0.0.0 Safari/537.36" etag="VltwSxkoGudkMmP3phaR" version="22.1.15" type="github">
  <diagram name="Page-1" id="Yq_X96kyCkvC1L8KpiFo">
    <mxGraphModel dx="1050" dy="557" grid="0" gridSize="10" guides="1" tooltips="1" connect="1" arrows="1" fold="1" page="1" pageScale="1" pageWidth="827" pageHeight="1169" background="#000000" math="0" shadow="0">
      <root>
        <mxCell id="0" />
        <mxCell id="1" parent="0" />
        <mxCell id="ZaFDxMiYzVC_nJNneum8-2" value="DATA COLLECTION" style="swimlane;rounded=0;labelBackgroundColor=none;fillColor=#e1d5e7;strokeColor=#9673a6;" vertex="1" parent="1">
          <mxGeometry x="280" y="40" width="280" height="220" as="geometry">
            <mxRectangle x="250" y="100" width="100" height="30" as="alternateBounds" />
          </mxGeometry>
        </mxCell>
        <UserObject label="&lt;b&gt;Acquire Food Review Dataset&lt;/b&gt;" treeRoot="1" id="ZaFDxMiYzVC_nJNneum8-4">
          <mxCell style="whiteSpace=wrap;html=1;align=center;treeFolding=1;treeMoving=1;newEdgeStyle={&quot;edgeStyle&quot;:&quot;elbowEdgeStyle&quot;,&quot;startArrow&quot;:&quot;none&quot;,&quot;endArrow&quot;:&quot;none&quot;};rounded=0;labelBackgroundColor=none;fillColor=#e1d5e7;strokeColor=#9673a6;" vertex="1" parent="ZaFDxMiYzVC_nJNneum8-2">
            <mxGeometry x="70" y="40" width="130" height="60" as="geometry" />
          </mxCell>
        </UserObject>
        <UserObject label="&lt;b&gt;Preprocess&lt;br&gt;(convert files into csv)&lt;br&gt;&lt;/b&gt;" treeRoot="1" id="ZaFDxMiYzVC_nJNneum8-5">
          <mxCell style="whiteSpace=wrap;html=1;align=center;treeFolding=1;treeMoving=1;newEdgeStyle={&quot;edgeStyle&quot;:&quot;elbowEdgeStyle&quot;,&quot;startArrow&quot;:&quot;none&quot;,&quot;endArrow&quot;:&quot;none&quot;};rounded=0;labelBackgroundColor=none;fillColor=#e1d5e7;strokeColor=#9673a6;" vertex="1" parent="ZaFDxMiYzVC_nJNneum8-2">
            <mxGeometry x="70" y="130" width="130" height="60" as="geometry" />
          </mxCell>
        </UserObject>
        <mxCell id="ZaFDxMiYzVC_nJNneum8-7" value="" style="endArrow=classic;html=1;rounded=0;exitX=0.5;exitY=1;exitDx=0;exitDy=0;strokeWidth=2;strokeColor=#006658;entryX=0.5;entryY=0;entryDx=0;entryDy=0;labelBackgroundColor=none;fontColor=default;" edge="1" parent="ZaFDxMiYzVC_nJNneum8-2" source="ZaFDxMiYzVC_nJNneum8-4" target="ZaFDxMiYzVC_nJNneum8-5">
          <mxGeometry width="50" height="50" relative="1" as="geometry">
            <mxPoint x="106" y="190" as="sourcePoint" />
            <mxPoint x="136" y="130" as="targetPoint" />
            <Array as="points" />
          </mxGeometry>
        </mxCell>
        <mxCell id="ZaFDxMiYzVC_nJNneum8-8" value="MAP REDUCE" style="swimlane;rounded=0;labelBackgroundColor=none;fillColor=#d5e8d4;strokeColor=#82b366;" vertex="1" parent="1">
          <mxGeometry x="280" y="320" width="280" height="320" as="geometry" />
        </mxCell>
        <UserObject label="&lt;b&gt;Mapper Phase&lt;/b&gt;&lt;br&gt;(Remove all the unnecessary characters)" treeRoot="1" id="ZaFDxMiYzVC_nJNneum8-9">
          <mxCell style="whiteSpace=wrap;html=1;align=center;treeFolding=1;treeMoving=1;newEdgeStyle={&quot;edgeStyle&quot;:&quot;elbowEdgeStyle&quot;,&quot;startArrow&quot;:&quot;none&quot;,&quot;endArrow&quot;:&quot;none&quot;};rounded=0;labelBackgroundColor=none;fillColor=#d5e8d4;strokeColor=#82b366;" vertex="1" parent="ZaFDxMiYzVC_nJNneum8-8">
            <mxGeometry x="20" y="40" width="240" height="60" as="geometry" />
          </mxCell>
        </UserObject>
        <UserObject label="&lt;b&gt;Sort and Shuffle&lt;/b&gt;&lt;br&gt;(organise based on food item)" treeRoot="1" id="ZaFDxMiYzVC_nJNneum8-10">
          <mxCell style="whiteSpace=wrap;html=1;align=center;treeFolding=1;treeMoving=1;newEdgeStyle={&quot;edgeStyle&quot;:&quot;elbowEdgeStyle&quot;,&quot;startArrow&quot;:&quot;none&quot;,&quot;endArrow&quot;:&quot;none&quot;};rounded=0;labelBackgroundColor=none;fillColor=#d5e8d4;strokeColor=#82b366;" vertex="1" parent="ZaFDxMiYzVC_nJNneum8-8">
            <mxGeometry x="20" y="140" width="240" height="60" as="geometry" />
          </mxCell>
        </UserObject>
        <UserObject label="&lt;b&gt;Reduce Phase&lt;/b&gt;&lt;br&gt;(aggregate and remove duplicate)" treeRoot="1" id="ZaFDxMiYzVC_nJNneum8-11">
          <mxCell style="whiteSpace=wrap;html=1;align=center;treeFolding=1;treeMoving=1;newEdgeStyle={&quot;edgeStyle&quot;:&quot;elbowEdgeStyle&quot;,&quot;startArrow&quot;:&quot;none&quot;,&quot;endArrow&quot;:&quot;none&quot;};rounded=0;labelBackgroundColor=none;fillColor=#d5e8d4;strokeColor=#82b366;" vertex="1" parent="ZaFDxMiYzVC_nJNneum8-8">
            <mxGeometry x="20" y="240" width="240" height="60" as="geometry" />
          </mxCell>
        </UserObject>
        <mxCell id="ZaFDxMiYzVC_nJNneum8-12" value="" style="endArrow=classic;html=1;rounded=0;exitX=0.5;exitY=1;exitDx=0;exitDy=0;entryX=0.5;entryY=0;entryDx=0;entryDy=0;labelBackgroundColor=none;strokeColor=#006658;fontColor=default;" edge="1" parent="ZaFDxMiYzVC_nJNneum8-8" source="ZaFDxMiYzVC_nJNneum8-9" target="ZaFDxMiYzVC_nJNneum8-10">
          <mxGeometry width="50" height="50" relative="1" as="geometry">
            <mxPoint x="80" y="230" as="sourcePoint" />
            <mxPoint x="130" y="180" as="targetPoint" />
          </mxGeometry>
        </mxCell>
        <mxCell id="ZaFDxMiYzVC_nJNneum8-13" value="" style="endArrow=classic;html=1;rounded=0;exitX=0.5;exitY=1;exitDx=0;exitDy=0;entryX=0.5;entryY=0;entryDx=0;entryDy=0;labelBackgroundColor=none;strokeColor=#006658;fontColor=default;" edge="1" parent="ZaFDxMiYzVC_nJNneum8-8" source="ZaFDxMiYzVC_nJNneum8-10" target="ZaFDxMiYzVC_nJNneum8-11">
          <mxGeometry width="50" height="50" relative="1" as="geometry">
            <mxPoint x="80" y="230" as="sourcePoint" />
            <mxPoint x="130" y="180" as="targetPoint" />
          </mxGeometry>
        </mxCell>
        <mxCell id="ZaFDxMiYzVC_nJNneum8-14" value="MODEL DEVELOPMENT" style="swimlane;rounded=0;labelBackgroundColor=none;fillColor=#f8cecc;strokeColor=#b85450;" vertex="1" parent="1">
          <mxGeometry x="81" y="720" width="290" height="420" as="geometry" />
        </mxCell>
        <UserObject label="&lt;b&gt;Creating data frame&amp;nbsp;&lt;/b&gt;&lt;br&gt;(grouped by food item same as in search query)" treeRoot="1" id="ZaFDxMiYzVC_nJNneum8-15">
          <mxCell style="whiteSpace=wrap;html=1;align=center;treeFolding=1;treeMoving=1;newEdgeStyle={&quot;edgeStyle&quot;:&quot;elbowEdgeStyle&quot;,&quot;startArrow&quot;:&quot;none&quot;,&quot;endArrow&quot;:&quot;none&quot;};rounded=0;labelBackgroundColor=none;fillColor=#f8cecc;strokeColor=#b85450;" vertex="1" parent="ZaFDxMiYzVC_nJNneum8-14">
            <mxGeometry x="25" y="50" width="240" height="60" as="geometry" />
          </mxCell>
        </UserObject>
        <UserObject label="&lt;b&gt;Cosine similarities between reviews&lt;/b&gt;&lt;br&gt;" treeRoot="1" id="ZaFDxMiYzVC_nJNneum8-16">
          <mxCell style="whiteSpace=wrap;html=1;align=center;treeFolding=1;treeMoving=1;newEdgeStyle={&quot;edgeStyle&quot;:&quot;elbowEdgeStyle&quot;,&quot;startArrow&quot;:&quot;none&quot;,&quot;endArrow&quot;:&quot;none&quot;};rounded=0;labelBackgroundColor=none;fillColor=#f8cecc;strokeColor=#b85450;" vertex="1" parent="ZaFDxMiYzVC_nJNneum8-14">
            <mxGeometry x="25" y="140" width="240" height="60" as="geometry" />
          </mxCell>
        </UserObject>
        <UserObject label="&lt;b&gt;Recommendation&lt;br&gt;&lt;/b&gt;(based on similar reviews)" treeRoot="1" id="ZaFDxMiYzVC_nJNneum8-17">
          <mxCell style="whiteSpace=wrap;html=1;align=center;treeFolding=1;treeMoving=1;newEdgeStyle={&quot;edgeStyle&quot;:&quot;elbowEdgeStyle&quot;,&quot;startArrow&quot;:&quot;none&quot;,&quot;endArrow&quot;:&quot;none&quot;};rounded=0;labelBackgroundColor=none;fillColor=#f8cecc;strokeColor=#b85450;" vertex="1" parent="ZaFDxMiYzVC_nJNneum8-14">
            <mxGeometry x="25" y="240" width="240" height="60" as="geometry" />
          </mxCell>
        </UserObject>
        <UserObject label="&lt;b&gt;Model Evaluation and validation matrix&lt;/b&gt;" treeRoot="1" id="ZaFDxMiYzVC_nJNneum8-19">
          <mxCell style="whiteSpace=wrap;html=1;align=center;treeFolding=1;treeMoving=1;newEdgeStyle={&quot;edgeStyle&quot;:&quot;elbowEdgeStyle&quot;,&quot;startArrow&quot;:&quot;none&quot;,&quot;endArrow&quot;:&quot;none&quot;};rounded=0;labelBackgroundColor=none;fillColor=#f8cecc;strokeColor=#b85450;" vertex="1" parent="ZaFDxMiYzVC_nJNneum8-14">
            <mxGeometry x="25" y="330" width="240" height="60" as="geometry" />
          </mxCell>
        </UserObject>
        <mxCell id="ZaFDxMiYzVC_nJNneum8-20" value="" style="endArrow=classic;html=1;rounded=0;exitX=0.5;exitY=1;exitDx=0;exitDy=0;entryX=0.5;entryY=0;entryDx=0;entryDy=0;labelBackgroundColor=none;strokeColor=#006658;fontColor=default;" edge="1" parent="ZaFDxMiYzVC_nJNneum8-14" source="ZaFDxMiYzVC_nJNneum8-15" target="ZaFDxMiYzVC_nJNneum8-16">
          <mxGeometry width="50" height="50" relative="1" as="geometry">
            <mxPoint x="210" y="330" as="sourcePoint" />
            <mxPoint x="260" y="280" as="targetPoint" />
          </mxGeometry>
        </mxCell>
        <mxCell id="ZaFDxMiYzVC_nJNneum8-21" value="" style="endArrow=classic;html=1;rounded=0;exitX=0.5;exitY=1;exitDx=0;exitDy=0;entryX=0.5;entryY=0;entryDx=0;entryDy=0;labelBackgroundColor=none;strokeColor=#006658;fontColor=default;" edge="1" parent="ZaFDxMiYzVC_nJNneum8-14" source="ZaFDxMiYzVC_nJNneum8-16" target="ZaFDxMiYzVC_nJNneum8-17">
          <mxGeometry width="50" height="50" relative="1" as="geometry">
            <mxPoint x="210" y="330" as="sourcePoint" />
            <mxPoint x="260" y="280" as="targetPoint" />
          </mxGeometry>
        </mxCell>
        <mxCell id="ZaFDxMiYzVC_nJNneum8-22" value="" style="endArrow=classic;html=1;rounded=0;exitX=0.5;exitY=1;exitDx=0;exitDy=0;entryX=0.5;entryY=0;entryDx=0;entryDy=0;labelBackgroundColor=none;strokeColor=#006658;fontColor=default;" edge="1" parent="ZaFDxMiYzVC_nJNneum8-14" source="ZaFDxMiYzVC_nJNneum8-17" target="ZaFDxMiYzVC_nJNneum8-19">
          <mxGeometry width="50" height="50" relative="1" as="geometry">
            <mxPoint x="210" y="330" as="sourcePoint" />
            <mxPoint x="260" y="280" as="targetPoint" />
          </mxGeometry>
        </mxCell>
        <mxCell id="ZaFDxMiYzVC_nJNneum8-23" value="WEBB APP DEPLOYMENT" style="swimlane;rounded=0;labelBackgroundColor=none;fillColor=#dae8fc;strokeColor=#6c8ebf;" vertex="1" parent="1">
          <mxGeometry x="457" y="720" width="320" height="190" as="geometry" />
        </mxCell>
        <UserObject label="&lt;b&gt;Deploying Trained Model&lt;/b&gt;" treeRoot="1" id="ZaFDxMiYzVC_nJNneum8-24">
          <mxCell style="whiteSpace=wrap;html=1;align=center;treeFolding=1;treeMoving=1;newEdgeStyle={&quot;edgeStyle&quot;:&quot;elbowEdgeStyle&quot;,&quot;startArrow&quot;:&quot;none&quot;,&quot;endArrow&quot;:&quot;none&quot;};rounded=0;labelBackgroundColor=none;fillColor=#dae8fc;strokeColor=#6c8ebf;" vertex="1" parent="ZaFDxMiYzVC_nJNneum8-23">
            <mxGeometry x="40" y="80" width="240" height="60" as="geometry" />
          </mxCell>
        </UserObject>
        <mxCell id="ZaFDxMiYzVC_nJNneum8-26" value="" style="endArrow=classic;html=1;rounded=0;exitX=1;exitY=0.25;exitDx=0;exitDy=0;labelBackgroundColor=none;strokeColor=#006658;fontColor=default;" edge="1" parent="1" source="ZaFDxMiYzVC_nJNneum8-14">
          <mxGeometry width="50" height="50" relative="1" as="geometry">
            <mxPoint x="330" y="700" as="sourcePoint" />
            <mxPoint x="457" y="825" as="targetPoint" />
          </mxGeometry>
        </mxCell>
        <mxCell id="ZaFDxMiYzVC_nJNneum8-28" value="" style="edgeStyle=segmentEdgeStyle;endArrow=classic;html=1;curved=0;rounded=0;endSize=8;startSize=8;exitX=0.5;exitY=1;exitDx=0;exitDy=0;labelBackgroundColor=none;strokeColor=#006658;fontColor=default;entryX=0.5;entryY=0;entryDx=0;entryDy=0;" edge="1" parent="1" source="ZaFDxMiYzVC_nJNneum8-8" target="ZaFDxMiYzVC_nJNneum8-14">
          <mxGeometry width="50" height="50" relative="1" as="geometry">
            <mxPoint x="425" y="650" as="sourcePoint" />
            <mxPoint x="260" y="720" as="targetPoint" />
            <Array as="points">
              <mxPoint x="420" y="680" />
              <mxPoint x="226" y="680" />
            </Array>
          </mxGeometry>
        </mxCell>
        <mxCell id="ZaFDxMiYzVC_nJNneum8-29" value="" style="endArrow=classic;html=1;rounded=0;exitX=0.5;exitY=1;exitDx=0;exitDy=0;entryX=0.5;entryY=0;entryDx=0;entryDy=0;labelBackgroundColor=none;strokeColor=#006658;fontColor=default;" edge="1" parent="1" source="ZaFDxMiYzVC_nJNneum8-2" target="ZaFDxMiYzVC_nJNneum8-8">
          <mxGeometry width="50" height="50" relative="1" as="geometry">
            <mxPoint x="330" y="400" as="sourcePoint" />
            <mxPoint x="380" y="350" as="targetPoint" />
          </mxGeometry>
        </mxCell>
      </root>
    </mxGraphModel>
  </diagram>
</mxfile>
